<?xml version="1.0" standalone="no"?>
<!DOCTYPE svg PUBLIC "-//W3C//DTD SVG 20010904//EN"
 "http://www.w3.org/TR/2001/REC-SVG-20010904/DTD/svg10.dtd">
<svg version="1.0" xmlns="http://www.w3.org/2000/svg"
 width="16.000000pt" height="16.000000pt" viewBox="0 0 16.000000 16.000000"
 preserveAspectRatio="xMidYMid meet">
<metadata>
Created by potrace 1.11, written by Peter Selinger 2001-2013
</metadata>
<g transform="translate(0.000000,16.000000) scale(0.001064,-0.001064)"
fill="#000000" stroke="none">
<path d="M12993 14756 c-201 -38 -386 -138 -524 -282 -157 -165 -240 -320
-280 -526 -10 -49 -12 -519 -10 -2145 l3 -2083 -825 0 -826 0 -3 838 -4 837
-25 85 c-60 199 -133 324 -263 456 -130 131 -276 214 -464 266 -64 18 -105 21
-247 21 -199 0 -270 -14 -424 -89 -125 -59 -201 -115 -294 -213 -172 -183
-254 -362 -277 -602 -7 -66 -8 -375 -4 -850 5 -717 5 -746 -13 -751 -10 -2
-360 -5 -778 -6 -807 -2 -838 -4 -1037 -53 -307 -75 -663 -253 -925 -464 -105
-84 -304 -283 -388 -388 -240 -299 -416 -672 -496 -1049 -18 -83 -23 -151 -28
-343 l-6 -240 -760 -2 c-809 -3 -849 -5 -1047 -53 -308 -76 -663 -254 -925
-465 -105 -84 -304 -283 -388 -388 -239 -298 -415 -669 -497 -1049 l-22 -103
3 -2035 c2 -2265 -2 -2133 71 -2327 98 -262 301 -468 564 -573 227 -91 514
-91 738 0 129 53 218 111 313 205 139 138 213 249 265 400 54 158 52 36 50
2298 0 1148 0 2087 2 2087 2 1 373 4 826 7 l822 5 0 -799 c0 -897 0 -904 70
-1090 98 -262 301 -468 564 -573 125 -50 259 -73 401 -67 186 7 317 45 482
138 83 47 227 181 300 279 80 107 146 263 174 412 9 46 11 279 10 880 l-2 817
858 3 858 3 115 32 c181 50 282 88 468 178 651 316 1136 907 1312 1600 52 203
60 272 60 515 l0 209 848 3 847 3 115 32 c181 50 282 88 468 178 651 316 1136
907 1312 1600 21 83 43 182 48 220 9 67 7 3676 -2 4025 -4 125 -9 171 -29 240
-55 193 -129 323 -261 456 -131 131 -280 217 -464 266 -100 26 -326 33 -429
14z m-4463 -7305 l0 -271 -830 0 -830 0 0 265 0 264 68 3 c37 2 410 5 830 6
l762 4 0 -271z"/>
</g>
</svg>
